<?xml version="1.0" encoding="utf-8"?>
<!-- Generator: Adobe Illustrator 25.2.0, SVG Export Plug-In . SVG Version: 6.00 Build 0)  -->
<svg version="1.1" id="Layer_1" xmlns="http://www.w3.org/2000/svg" xmlns:xlink="http://www.w3.org/1999/xlink" x="0px" y="0px"
	 viewBox="0 0 300.3 352" style="enable-background:new 0 0 300.3 352;" xml:space="preserve">
<style type="text/css">
	.st0{fill:#141416;}
	.st1{fill:#C3E336;}
</style>
<g>
	<path class="st0" d="M27,161.2v147.4c5.1-5.1,27.7-27.4,31.8-31.5V160.7C48.1,161.8,37.6,160.3,27,161.2z"/>
	<path class="st0" d="M124.7,21H27v31.3c9,0.1,32.7,0,31.8,0h65.9c48.6,0,83.6,21.3,101.9,58c2.5-2.5,18.5-18.5,24-23.8
		C225.3,44.9,181.5,21,124.7,21z"/>
	<path class="st1" d="M259.6,102.9c-4.9,4.8-23.1,23-25.3,25.2c5.7,14.6,7,26,7,43.1v0.9c0,66.5-45.4,118-116.6,118H71.3
		c-0.6,0.6-27,26.8-31.5,31.3h84.9c88.5,0,149.6-65.6,149.6-150.2v-0.9C274.2,143.8,270.6,124.1,259.6,102.9z"/>
</g>
<path class="st0" d="M176.1,160.1H27v31.2h118C149.4,186.9,175.3,160.9,176.1,160.1z"/>
</svg>
